<?xml version="1.0" standalone="no"?>
<!DOCTYPE svg PUBLIC "-//W3C//DTD SVG 20010904//EN"
 "http://www.w3.org/TR/2001/REC-SVG-20010904/DTD/svg10.dtd">
<svg version="1.0" xmlns="http://www.w3.org/2000/svg"
 width="1536.000000pt" height="1772.000000pt" viewBox="0 0 1536.000000 1772.000000"
 preserveAspectRatio="xMidYMid meet">

<g transform="translate(0.000000,1772.000000) scale(0.100000,-0.100000)"
fill="#000000" stroke="none">
<path d="M10505 17711 c-40 -8 -40 -8 16 -10 65 -1 122 -18 116 -35 -2 -6 -46
-201 -98 -433 l-93 -423 -98 0 -98 0 0 70 0 70 -50 0 -50 0 0 -70 0 -70 -140
0 -140 0 0 70 0 70 -50 0 -50 0 0 -70 0 -70 -125 0 -125 0 0 70 0 70 -50 0
-50 0 0 -70 0 -70 -130 0 -130 0 0 70 0 70 -50 0 -50 0 0 -70 0 -70 -125 0
-125 0 0 70 0 70 -50 0 -50 0 0 -70 0 -70 -130 0 -130 0 0 70 0 70 -50 0 -50
0 0 -70 0 -70 -140 0 -140 0 0 70 0 70 -50 0 -50 0 0 -70 0 -70 -48 0 c-27 0
-83 -3 -125 -6 l-77 -7 0 77 0 76 -50 0 -50 0 0 -75 0 -75 -130 0 -130 0 0 75
0 75 -50 0 -50 0 0 -75 0 -75 -125 0 -125 0 0 75 0 75 -50 0 -50 0 0 -75 0
-75 -130 0 -130 0 0 75 0 75 -50 0 -49 0 -3 -72 -3 -73 -137 -3 -138 -3 0 76
0 75 -50 0 -49 0 -3 -72 -3 -73 -122 -3 -122 -3 -3 73 -3 73 -47 3 -48 3 0
-75 0 -76 -130 0 -129 0 -3 73 -3 72 -47 3 -48 3 0 -75 0 -76 -140 0 -139 0
-3 73 -3 72 -47 3 -48 3 0 -75 0 -76 -57 0 -58 0 -79 378 c-44 207 -81 388
-84 402 -5 22 1 19 60 -27 l66 -51 38 39 c44 45 125 79 189 79 55 0 145 -33
173 -63 l22 -23 -41 -33 c-130 -105 -132 -207 -7 -312 80 -66 135 -97 188
-104 l45 -6 -40 22 c-56 30 -113 87 -120 121 -14 61 41 140 127 184 18 9 35
18 37 20 1 1 -10 20 -25 40 -40 52 -133 118 -201 144 -95 35 -255 24 -342 -24
-20 -11 -38 -8 -150 29 -142 47 -229 70 -238 62 -3 -3 96 -442 219 -974 124
-532 223 -971 221 -975 -2 -5 -1133 -8 -2514 -8 l-2509 0 2 -1341 3 -1342 115
-23 c347 -72 589 -196 742 -382 122 -148 184 -290 260 -588 l22 -89 6 -4295
c5 -3990 7 -4302 23 -4400 61 -378 144 -645 290 -937 194 -385 481 -724 817
-962 234 -166 436 -273 690 -365 367 -134 672 -186 1084 -186 104 0 228 -5
274 -12 74 -11 151 -8 624 21 574 36 752 37 988 6 452 -61 861 -209 1240 -451
174 -111 261 -173 390 -282 l105 -88 94 83 c457 407 1083 687 1671 748 92 9
1716 55 1907 54 272 -2 573 32 802 91 115 29 354 112 461 159 708 313 1228
920 1462 1706 41 137 78 319 105 520 15 109 17 500 23 4420 5 3918 7 4306 22
4370 75 325 227 569 458 740 134 98 344 182 526 210 60 10 119 19 132 21 l22
4 0 1325 0 1325 -2516 0 -2516 0 7 28 c9 37 485 1843 491 1863 3 13 -6 19 -38
27 -58 15 -233 22 -283 13z m-3595 -1238 c0 -15 -75 -102 -115 -134 -152 -121
-396 -146 -582 -58 -71 34 -157 101 -203 159 l-32 40 466 0 c256 0 466 -3 466
-7z m1159 -14 c-6 -12 -30 -42 -52 -67 -166 -179 -465 -218 -681 -87 -60 36
-131 96 -174 147 l-24 28 471 0 472 0 -12 -21z m1220 -1 c-7 -13 -38 -48 -68
-79 -71 -71 -186 -128 -290 -145 -126 -20 -285 10 -384 73 -45 28 -177 151
-177 165 0 4 209 8 465 8 l466 0 -12 -22z m1025 -4 c-4 -14 -16 -69 -28 -122
l-21 -97 -40 -7 c-48 -8 -182 6 -251 27 -92 28 -220 119 -275 196 l-20 29 321
0 320 0 -6 -26z m-4654 -2 c0 -13 -78 -103 -118 -134 -97 -79 -294 -133 -401
-112 l-45 9 -21 118 c-12 64 -19 119 -17 122 9 8 602 6 602 -3z m306 -318
c155 -69 294 -97 474 -98 182 0 291 22 471 95 l76 32 59 -40 c112 -76 273
-142 384 -158 72 -10 80 -14 80 -41 l0 -24 -1171 2 -1171 3 -19 50 c-10 28
-19 52 -19 54 0 2 44 1 99 -2 181 -12 403 34 591 122 36 16 70 30 76 31 6 0
38 -12 70 -26z m2387 -4 c94 -39 245 -77 360 -91 192 -24 464 17 643 96 31 14
62 25 68 25 7 0 50 -18 96 -41 166 -80 408 -128 577 -115 93 7 93 7 77 -73
l-6 -31 -1214 0 -1214 0 0 24 c0 22 6 26 58 35 142 27 310 95 422 170 25 17
48 31 53 31 4 0 40 -13 80 -30z m552 -355 c-395 -121 -750 -344 -1008 -633
-78 -87 -189 -238 -221 -299 -9 -18 -20 -33 -25 -33 -5 0 -22 21 -37 48 -116
200 -371 456 -619 621 -197 132 -371 221 -585 302 l-75 28 1340 0 1340 0 -110
-34z m6115 -1210 l0 -1045 -27 -6 c-268 -64 -444 -145 -616 -281 -78 -62 -180
-178 -245 -277 -96 -147 -188 -387 -236 -614 l-26 -122 0 -1695 0 -1695 -268
0 -268 0 -17 71 c-33 145 -123 289 -243 392 -81 71 -143 103 -234 123 -149 34
-239 138 -240 277 -1 85 -24 116 -318 407 -264 262 -496 481 -755 709 -104 92
-124 116 -169 195 -92 165 -212 295 -313 342 -143 65 -321 47 -433 -46 -32
-26 -44 -30 -98 -30 -34 0 -92 9 -129 21 -58 18 -78 31 -148 98 -86 82 -272
219 -429 317 -153 95 -443 237 -568 277 -136 44 -184 53 -350 67 -198 16 -308
61 -445 180 -38 34 -101 77 -138 96 -68 35 -241 88 -389 119 l-78 17 0 986 0
985 41 76 c311 569 841 955 1478 1075 l126 24 2768 1 2767 1 0 -1045z m-12545
-204 c22 -10 54 -35 70 -55 52 -64 202 -232 479 -536 l269 -295 339 -76 c317
-71 348 -76 496 -82 373 -16 789 -98 1107 -219 331 -126 776 -378 975 -553
136 -119 310 -212 497 -266 100 -29 120 -31 268 -31 196 -1 323 25 491 99 108
48 110 48 214 48 125 -1 262 -32 428 -96 93 -36 116 -51 175 -106 154 -144
336 -224 542 -238 207 -14 290 -37 495 -140 279 -140 549 -324 708 -484 86
-86 155 -129 253 -159 101 -31 190 -36 284 -17 68 14 86 22 120 55 22 21 50
43 62 49 94 48 225 -63 342 -291 41 -81 61 -106 152 -193 385 -367 658 -638
825 -816 165 -177 194 -213 199 -245 17 -109 26 -144 53 -204 62 -137 168
-231 307 -271 206 -61 317 -179 346 -369 13 -84 3 -148 -36 -235 -78 -176
-288 -267 -472 -205 -81 27 -142 24 -227 -14 -188 -83 -370 -286 -631 -703
-334 -533 -483 -740 -642 -893 -175 -168 -229 -193 -653 -296 -165 -40 -288
-76 -326 -94 -130 -63 -232 -223 -273 -427 -38 -187 -24 -477 30 -598 18 -42
21 -60 16 -127 -12 -148 -57 -254 -154 -359 -88 -95 -188 -139 -354 -157 -122
-13 -196 -51 -307 -157 -49 -46 -117 -124 -152 -172 -73 -102 -271 -500 -416
-835 -115 -267 -133 -302 -182 -354 -51 -54 -162 -119 -238 -138 -34 -9 -96
-16 -139 -16 -89 0 -201 -33 -278 -82 -111 -71 -209 -224 -230 -357 -11 -71
-13 -75 -56 -107 -99 -71 -223 -82 -333 -30 -67 32 -116 84 -157 164 -50 99
-167 182 -326 232 -78 24 -250 30 -314 11 -45 -14 -151 2 -205 30 -21 11 -58
35 -82 53 -54 41 -236 109 -364 136 -170 35 -294 44 -457 31 -81 -7 -150 -14
-154 -17 -15 -9 -188 50 -273 93 -390 202 -629 609 -625 1068 0 55 4 127 9
160 6 47 3 77 -12 140 -72 284 121 433 548 423 l130 -3 76 38 c178 87 278 269
265 482 -6 98 -36 190 -81 249 -13 17 -46 76 -73 131 -138 275 -216 565 -230
851 -10 213 17 261 244 422 347 247 572 462 687 659 47 80 100 213 120 301 20
90 21 271 1 385 -19 107 -66 249 -116 348 -21 42 -69 168 -108 280 -87 255
-221 635 -312 885 -67 187 -69 193 -69 287 0 289 -125 577 -339 779 -131 124
-235 184 -424 244 -191 62 -301 132 -395 252 -73 95 -109 183 -157 394 -115
492 -207 754 -340 959 -65 100 -105 147 -188 216 -81 67 -138 101 -277 164
-52 24 -149 73 -215 109 -194 106 -316 241 -439 488 -61 120 -79 183 -69 234
26 140 162 222 278 169z m2948 -5948 c9 -54 -10 -190 -35 -255 l-10 -28 -1884
0 -1884 0 0 160 0 160 1904 0 1903 0 6 -37z m-129 -435 c-14 -25 -80 -104
-143 -170 l-63 -68 -1739 0 -1739 0 0 125 0 125 1846 0 c1473 0 1844 -3 1838
-12z m-539 -503 l-169 -125 -1488 0 -1488 0 0 125 0 125 1657 0 1657 0 -169
-125z m-352 -261 c3 -4 -2 -23 -12 -43 -21 -42 -41 -127 -41 -176 l0 -35
-1370 0 -1370 0 0 130 0 130 1393 0 c767 0 1396 -3 1400 -6z m-49 -446 c3 -35
8 -91 10 -125 l6 -63 -1380 0 -1380 0 0 125 0 125 1369 0 1369 0 6 -62z m46
-352 c0 -21 37 -162 55 -208 7 -17 -65 -18 -1419 -18 l-1426 0 0 125 0 125
1395 0 1395 0 0 -24z m170 -493 l59 -123 -1510 0 -1509 0 0 125 0 125 1450 -2
1450 -3 60 -122z m155 -292 c19 -43 18 -142 -3 -193 l-12 -28 -1550 0 -1550 0
0 130 0 130 1548 0 1549 0 18 -39z m-663 -386 c-99 -40 -194 -107 -242 -169
l-35 -45 -1087 -1 -1088 0 0 125 0 125 1268 0 1267 -1 -83 -34z m-349 -387
c-4 -18 -8 -75 -8 -125 l0 -93 -1047 0 -1048 0 0 125 0 125 1056 0 1056 0 -9
-32z m6902 -263 c26 -88 50 -164 54 -168 5 -4 78 -14 164 -21 87 -7 159 -15
162 -18 3 -3 -51 -49 -121 -103 -69 -54 -128 -104 -131 -111 -3 -7 11 -87 30
-176 20 -90 34 -164 32 -166 -2 -2 -62 42 -133 97 -72 56 -133 101 -136 101
-4 0 -66 -37 -139 -83 -72 -46 -137 -87 -144 -90 -11 -7 4 49 67 246 l28 88
-46 43 c-26 23 -81 73 -122 111 -41 37 -76 71 -78 76 -2 5 72 10 163 11 l167
3 65 163 c36 90 67 162 68 160 1 -2 24 -75 50 -163z m2070 -2 c27 -87 52 -162
55 -166 4 -4 77 -14 163 -21 87 -7 159 -15 162 -18 3 -3 -54 -51 -128 -108
l-134 -102 39 -171 c21 -94 37 -172 35 -174 -2 -1 -64 42 -137 97 -74 55 -139
99 -145 96 -6 -2 -70 -42 -143 -90 -73 -47 -132 -80 -132 -73 0 6 20 79 45
161 25 82 45 155 45 162 0 7 -57 64 -126 126 l-126 113 172 5 171 5 62 157
c34 87 65 158 68 158 3 0 27 -71 54 -157z m-8959 -124 c-3 -17 -6 -74 -6 -125
l0 -94 -1055 0 -1055 0 0 125 0 125 1061 0 1062 0 -7 -31z m13 -406 c6 -32 19
-88 30 -125 l18 -68 -1088 0 -1089 0 0 125 0 125 1059 0 1060 0 10 -57z m7946
-460 c27 -87 51 -161 55 -166 3 -4 71 -12 151 -18 79 -6 152 -13 161 -17 14
-5 -12 -30 -116 -110 l-134 -103 9 -37 c4 -20 22 -97 39 -171 16 -74 28 -136
26 -138 -2 -2 -16 7 -32 20 -16 13 -76 60 -135 104 l-105 81 -145 -93 c-79
-51 -145 -92 -146 -91 -2 1 21 78 49 170 l52 168 -49 47 c-28 25 -86 79 -130
119 l-80 72 172 0 172 0 62 160 c35 88 66 160 69 160 4 0 28 -71 55 -157z
m-7817 65 c17 -35 47 -89 67 -122 19 -32 35 -60 35 -62 0 -2 -531 -4 -1180 -4
l-1180 0 0 125 0 125 1114 0 1113 0 31 -62z m296 -406 c45 -43 110 -98 145
-123 l63 -44 -1358 -3 c-746 -1 -1359 0 -1361 1 -4 5 -29 137 -37 200 l-6 47
1237 0 1236 0 81 -78z m575 -323 c80 -23 119 -23 291 1 224 31 542 -36 706
-150 40 -28 92 -59 116 -69 43 -19 22 -20 -2022 -18 l-2065 2 -32 92 c-18 51
-35 109 -39 128 l-6 35 1488 0 c1485 0 1488 0 1563 -21z m5876 -421 c27 -90
50 -165 52 -167 2 -2 76 -10 165 -18 89 -7 163 -15 165 -17 3 -2 -54 -50 -126
-106 -77 -59 -131 -109 -131 -118 1 -9 16 -87 35 -172 18 -85 32 -156 30 -159
-2 -2 -63 43 -135 99 -72 56 -136 100 -143 97 -7 -2 -72 -43 -145 -91 -72 -47
-134 -86 -136 -86 -2 0 11 48 29 108 19 59 43 135 53 169 l20 63 -122 112
c-66 61 -122 115 -124 120 -2 4 72 9 164 10 l168 3 48 120 c26 66 54 137 62
158 8 20 16 37 19 37 2 0 26 -73 52 -162z m2069 5 c27 -87 55 -163 62 -169 8
-6 62 -14 122 -18 146 -9 203 -17 196 -27 -2 -4 -61 -51 -129 -104 -77 -59
-125 -103 -125 -114 0 -10 16 -87 35 -171 19 -85 33 -155 31 -157 -2 -2 -62
42 -135 97 -72 55 -134 100 -139 100 -4 0 -68 -40 -142 -90 -74 -49 -136 -85
-138 -80 -2 4 17 76 42 158 26 83 46 157 46 165 0 8 -57 65 -126 128 l-126
114 173 5 172 5 61 157 c34 87 64 158 67 158 3 0 27 -71 53 -157z m-6113 10
c39 -66 110 -143 163 -179 l51 -34 -2425 2 -2425 3 -57 115 c-31 63 -57 118
-58 123 0 4 1064 7 2364 7 l2364 0 23 -37z m929 -478 l0 -125 -30 0 -30 0 0
-70 0 -70 30 0 30 0 0 -315 0 -315 -35 0 c-31 0 -35 3 -35 25 l0 25 -2330 0
-2330 0 0 165 0 165 -90 0 -90 0 -77 69 c-43 38 -103 94 -133 125 l-54 56 222
0 222 0 0 70 0 70 -284 0 -284 0 -64 88 c-81 109 -108 148 -108 156 0 3 1231
6 2735 6 l2735 0 0 -125z m0 -1205 l0 -170 -234 0 -233 0 -134 61 c-296 135
-685 241 -999 272 -19 2 333 5 783 5 l817 2 0 -170z m0 -371 c0 -53 -3 -68
-12 -63 -26 16 -193 126 -197 130 -2 2 44 4 102 4 l107 0 0 -71z"/>
<path d="M9429 14826 c-140 -57 -211 -149 -212 -276 -2 -143 72 -220 329 -345
94 -46 188 -98 208 -116 69 -60 82 -115 43 -183 -31 -55 -84 -80 -177 -84 -71
-3 -79 -2 -155 38 -102 52 -162 120 -201 226 -15 41 -32 73 -38 71 -7 -2 -12
-68 -14 -200 -3 -216 -1 -222 52 -166 35 37 57 36 210 -5 117 -31 198 -33 283
-7 81 25 121 50 180 115 56 61 75 111 74 198 0 138 -74 211 -346 344 -104 52
-203 105 -218 119 -110 98 -30 235 138 235 139 0 268 -101 310 -243 7 -24 19
-43 29 -45 14 -3 16 15 16 172 0 149 -2 176 -15 176 -8 0 -22 -16 -30 -36 -14
-33 -18 -36 -47 -31 -18 3 -71 19 -118 36 -110 40 -216 43 -301 7z"/>
<path d="M10120 14815 c0 -11 11 -15 40 -15 47 0 95 -22 110 -49 16 -30 13
-859 -3 -891 -14 -27 -63 -49 -114 -49 -23 -1 -33 -6 -33 -16 0 -13 59 -15
493 -13 l492 3 26 160 c15 88 25 163 22 168 -10 16 -23 5 -38 -30 -66 -158
-166 -223 -365 -238 -97 -8 -164 5 -180 35 -6 11 -10 99 -10 209 l0 191 40 0
c99 0 156 -52 187 -172 10 -39 23 -68 30 -68 10 0 13 58 13 275 0 218 -3 275
-13 275 -8 0 -18 -23 -25 -56 -24 -116 -81 -174 -184 -187 l-48 -7 0 215 0
215 98 0 c233 0 333 -52 375 -196 8 -30 21 -50 31 -52 14 -3 16 13 16 152 l0
156 -480 0 c-420 0 -480 -2 -480 -15z"/>
<path d="M7371 11730 c-581 -81 -1090 -425 -1323 -895 -138 -278 -196 -535
-185 -825 8 -211 36 -359 99 -525 55 -143 101 -208 262 -370 83 -82 151 -159
152 -170 1 -11 47 -171 103 -355 56 -184 100 -337 99 -341 -3 -6 -302 98 -324
113 -6 4 -23 38 -39 75 -15 37 -32 72 -36 77 -4 5 -36 -7 -71 -27 l-63 -35
-102 48 -101 48 -32 -137 c-17 -75 -40 -169 -50 -208 l-18 -73 42 -18 c22 -11
232 -103 466 -206 476 -210 494 -221 488 -299 l-3 -41 -312 -175 -311 -175 5
-53 c7 -67 -15 -128 -68 -190 -22 -24 -48 -62 -59 -84 -37 -72 -109 -254 -130
-329 -47 -170 -63 -396 -39 -567 24 -180 119 -386 249 -543 30 -36 39 -57 45
-103 13 -103 90 -228 150 -243 14 -3 49 -4 76 -2 69 7 126 48 162 118 26 51
28 61 23 142 l-6 87 50 42 c77 65 143 178 176 302 22 79 22 317 1 472 l-15
110 26 49 c32 59 93 130 146 168 89 64 175 24 221 -105 l25 -68 0 -1013 0
-1014 63 -58 c226 -212 544 -212 765 -1 l42 41 0 1071 0 1070 60 77 c56 72 63
77 107 84 97 14 225 -38 304 -124 89 -97 117 -198 100 -351 -25 -212 -14 -329
45 -481 33 -84 63 -134 125 -212 48 -59 50 -65 44 -105 -15 -105 36 -221 115
-260 88 -45 192 -24 257 51 42 47 57 96 50 172 l-5 64 59 72 c340 425 350
1051 22 1484 -32 42 -64 84 -70 93 -7 10 -18 64 -24 121 -5 58 -15 108 -21
111 -6 4 -31 10 -56 14 -56 8 -455 228 -478 263 -37 57 -23 153 28 186 12 8
248 110 523 227 275 116 502 213 504 215 3 2 -155 294 -200 371 l-19 31 -141
-49 c-119 -42 -151 -49 -214 -49 l-74 0 -6 -47 c-13 -93 -8 -88 -174 -164 -85
-38 -156 -68 -158 -65 -4 4 241 717 273 795 8 19 29 53 48 75 58 71 153 277
195 422 56 192 100 474 87 558 -54 340 -94 481 -198 690 -167 334 -434 606
-756 770 -152 76 -267 118 -422 153 -98 22 -144 26 -315 29 -110 1 -229 -1
-264 -6z m354 -120 c39 -6 75 -16 80 -24 6 -7 31 -36 56 -64 l46 -50 47 40 48
41 60 -17 c69 -19 248 -101 323 -148 27 -18 51 -33 53 -33 1 -1 -9 -22 -22
-46 l-25 -43 77 -80 c42 -45 80 -83 84 -84 4 -2 30 12 57 32 27 20 53 36 57
36 9 0 104 -104 104 -113 0 -2 -36 -28 -80 -57 -44 -29 -80 -56 -80 -60 0 -4
22 -37 50 -73 l50 -66 90 50 c50 27 93 49 95 49 2 0 18 -20 34 -44 l30 -43
-94 -67 c-52 -37 -97 -71 -100 -76 -6 -10 62 -130 74 -130 5 0 52 25 106 55
54 31 99 54 100 53 6 -7 45 -101 43 -103 -2 -1 -49 -28 -105 -59 -57 -31 -103
-63 -103 -70 0 -6 9 -40 21 -75 12 -34 19 -65 16 -68 -3 -3 -75 11 -159 31
-268 63 -689 126 -845 126 -32 0 -64 4 -70 8 -9 6 6 34 53 98 l66 89 -78 72
-77 72 -59 -92 c-32 -51 -58 -96 -58 -100 0 -5 28 -38 62 -73 l61 -64 -191 0
c-106 0 -192 2 -192 5 0 3 29 44 64 92 l64 88 -76 70 c-41 38 -77 69 -80 68
-2 -1 -30 -43 -62 -94 l-59 -93 66 -70 66 -71 -59 -3 c-33 -1 -126 -9 -208
-17 -82 -8 -151 -14 -152 -12 -2 1 29 44 68 96 58 77 68 95 57 105 -8 7 -44
40 -80 74 l-66 62 -57 -93 c-31 -51 -56 -97 -56 -101 0 -5 27 -38 61 -73 33
-36 58 -67 55 -70 -3 -3 -80 -18 -173 -33 -92 -15 -228 -42 -301 -59 -73 -17
-139 -31 -147 -31 -13 0 -13 3 20 146 4 20 -4 24 -133 54 -75 18 -140 35 -144
39 -5 5 44 126 57 139 2 2 60 -26 128 -62 69 -36 129 -66 135 -66 5 0 25 24
45 54 l36 55 -125 101 c-78 64 -122 106 -117 113 4 7 15 24 26 39 l20 27 132
-89 132 -88 16 31 c9 18 32 60 51 94 l35 61 -105 88 c-57 48 -104 90 -104 94
0 3 15 20 33 38 l33 32 104 -65 c57 -35 105 -63 107 -61 11 11 143 201 143
206 0 3 -25 30 -55 60 l-54 54 57 34 c75 45 203 101 326 142 l99 33 53 -59
c34 -38 56 -55 61 -48 5 6 28 41 52 77 l43 67 97 0 c53 0 128 -5 166 -10z
m510 -1319 c281 -33 644 -106 895 -179 l95 -28 -2 -97 c-1 -61 -11 -141 -28
-219 -15 -68 -28 -124 -29 -126 -2 -1 -77 16 -167 38 -254 61 -445 97 -669
124 -707 88 -1334 48 -2084 -134 -114 -27 -211 -50 -216 -50 -24 0 -37 235
-22 370 l7 55 81 27 c310 104 857 213 1194 238 210 15 743 5 945 -19z m-1930
-27 c-33 -13 -288 -84 -292 -81 -2 3 -1 23 3 46 l7 41 146 -1 c80 0 142 -2
136 -5z m1285 -1436 l0 -873 -64 65 -64 65 -46 740 c-26 407 -49 768 -52 802
-7 73 -12 70 129 72 l97 1 0 -872z m325 810 c-3 -29 -26 -372 -51 -762 l-45
-710 -52 -62 c-29 -35 -55 -63 -59 -63 -5 -1 -8 370 -8 824 l0 825 110 0 110
0 -5 -52z m-675 23 c0 -10 23 -321 50 -691 28 -370 50 -687 50 -704 l0 -31
-61 61 -62 62 -93 628 c-52 346 -94 639 -94 650 0 19 8 22 93 31 50 6 98 11
105 11 6 1 12 -6 12 -17z m928 -2 c39 -7 72 -17 72 -22 0 -5 -32 -286 -70
-625 -67 -582 -71 -615 -93 -632 -12 -10 -42 -34 -67 -53 -24 -20 -45 -35 -46
-34 -1 1 20 308 47 682 27 374 49 686 49 693 0 8 7 11 18 8 9 -2 50 -10 90
-17z m-1172 -591 c50 -315 89 -575 87 -577 -1 -2 -21 12 -44 31 l-42 34 -117
542 -116 542 71 0 71 0 90 -572z m1504 548 c63 -9 85 -16 84 -26 -1 -8 -52
-215 -113 -460 l-113 -445 -61 -82 c-34 -45 -63 -81 -64 -79 -3 2 118 1078
123 1094 4 14 31 14 144 -2z m-1762 -457 c51 -249 91 -454 89 -455 -2 -2 -171
167 -376 377 -205 209 -370 383 -367 387 6 5 524 138 551 141 6 1 52 -202 103
-450z m2201 376 c96 -19 177 -37 179 -40 3 -2 -26 -42 -64 -88 -38 -47 -157
-193 -264 -325 -172 -213 -227 -269 -245 -251 -1 2 38 172 88 377 85 348 93
373 112 368 11 -3 98 -21 194 -41z m-437 -1423 c-373 -955 -373 -956 -176
-112 l138 587 164 147 c91 80 166 145 168 143 2 -2 -130 -346 -294 -765z
m-1664 415 l64 -65 249 -978 c137 -538 249 -982 249 -987 0 -9 -101 2 -112 12
-4 3 -153 490 -333 1081 -179 591 -332 1094 -340 1118 l-14 44 87 -80 c48 -44
116 -110 150 -145z m1344 -731 c-75 -369 -138 -663 -139 -655 -2 7 26 267 61
576 l63 562 73 96 c40 52 74 94 76 93 1 -2 -59 -304 -134 -672z m1355 547 c28
-49 48 -91 45 -95 -7 -7 -863 -366 -895 -375 -16 -5 -18 2 -15 88 l3 94 400
187 c220 103 402 187 405 188 3 0 29 -39 57 -87z m-3292 -121 l400 -158 7
-119 c4 -66 6 -120 4 -122 -2 -3 -868 356 -875 363 -4 4 37 171 46 187 2 4 7
7 11 7 4 -1 187 -72 407 -158z m859 72 l47 -52 34 -273 c19 -151 35 -281 34
-289 -1 -17 -178 648 -179 670 0 8 3 10 8 5 5 -6 30 -33 56 -61z m915 -306
c-10 -117 -32 -401 -50 -630 -18 -229 -37 -414 -41 -412 -4 3 -8 254 -8 558
l0 553 57 72 c31 39 57 71 57 71 1 0 -6 -96 -15 -212z m-695 55 l47 -61 14
-284 c23 -462 22 -462 -56 -3 -37 226 -69 414 -69 420 0 11 3 8 64 -72z m468
-853 c2 -305 2 -541 0 -525 -1 17 -22 279 -45 582 l-43 553 36 57 35 56 7 -84
c3 -46 8 -334 10 -639z m-249 576 l47 -64 0 -418 c0 -229 -2 -415 -4 -413 -4
4 -96 915 -96 948 0 18 4 14 53 -53z m1219 -337 c144 -85 167 -104 201 -167
58 -107 54 -216 -11 -304 -83 -111 -90 -191 -27 -284 48 -70 158 -154 200
-154 28 0 137 -65 192 -114 27 -25 64 -73 83 -107 29 -54 34 -75 38 -154 5
-100 -9 -169 -54 -258 -69 -134 -157 -213 -276 -246 -60 -17 -152 -2 -212 33
-96 56 -178 184 -197 308 -8 53 -6 75 11 138 63 237 62 229 58 355 -5 138 -25
206 -82 284 -51 69 -66 111 -66 183 0 69 22 129 65 180 19 22 25 41 25 74 0
70 -22 101 -95 134 -65 29 -85 51 -85 92 0 48 52 93 95 81 11 -2 73 -36 137
-74z m-1988 10 c49 -58 30 -104 -57 -140 -104 -43 -137 -125 -81 -200 48 -63
74 -130 74 -192 0 -68 -17 -113 -69 -181 -96 -126 -116 -335 -51 -536 56 -174
52 -274 -18 -394 -78 -133 -165 -191 -287 -191 -91 0 -165 34 -238 107 -90 91
-166 267 -167 385 0 151 134 324 296 381 75 26 134 65 190 124 103 109 100
202 -10 355 -32 44 -41 122 -21 195 24 94 53 129 166 204 197 129 227 139 273
83z m636 -1709 l0 -460 -50 0 -50 0 0 460 0 460 50 0 50 0 0 -460z m-1084
-293 c31 -27 37 -74 14 -103 -58 -68 -164 -6 -130 76 23 54 71 65 116 27z
m2768 7 c55 -54 0 -143 -73 -119 -20 6 -51 51 -51 73 0 5 9 21 21 36 24 30 78
36 103 10z m-1204 -394 l0 -80 -225 0 -225 0 0 80 0 80 225 0 225 0 0 -80z
m-480 -400 l0 -240 -50 0 -50 0 0 240 0 240 50 0 50 0 0 -240z"/>
<path d="M7553 11453 l-61 -97 65 -73 c36 -40 69 -73 73 -73 4 0 40 44 80 97
l73 96 -79 73 c-43 40 -81 73 -84 73 -3 1 -33 -43 -67 -96z"/>
<path d="M7110 11363 l-52 -98 43 -37 43 -37 24 42 c30 52 82 155 82 161 0 3
-20 19 -44 35 l-44 31 -52 -97z"/>
<path d="M8057 11402 c-20 -21 -37 -42 -37 -47 0 -6 20 -36 44 -67 l43 -57 47
48 48 48 -48 54 c-26 30 -50 55 -53 57 -4 1 -23 -15 -44 -36z"/>
<path d="M7346 11174 l-47 -75 51 -59 c29 -33 53 -60 55 -60 2 0 29 34 60 77
l56 76 -28 30 c-15 16 -44 42 -63 57 l-36 28 -48 -74z"/>
<path d="M7787 11178 l-46 -73 52 -52 c28 -29 54 -53 58 -53 4 0 31 32 60 71
l53 72 -57 53 c-32 30 -62 54 -66 54 -5 0 -29 -33 -54 -72z"/>
<path d="M8235 11160 l-48 -49 49 -57 c27 -31 57 -67 67 -80 10 -13 23 -24 29
-24 12 0 87 52 88 61 0 3 -31 49 -68 102 l-69 96 -48 -49z"/>
<path d="M6906 11088 l-49 -92 38 -33 c21 -18 42 -33 46 -33 6 0 109 182 109
193 0 6 -78 57 -87 57 -5 0 -30 -42 -57 -92z"/>
<path d="M7097 10919 l-68 -109 73 -80 c40 -44 76 -80 79 -80 3 0 41 48 84
106 l77 106 -33 35 c-19 19 -59 56 -89 83 l-55 48 -68 -109z"/>
<path d="M7543 10936 c-29 -45 -55 -89 -58 -97 -6 -15 111 -152 126 -147 4 2
38 43 74 93 l65 90 -72 72 c-40 40 -75 73 -78 73 -3 0 -28 -38 -57 -84z"/>
<path d="M7981 10919 l-61 -100 67 -75 c37 -40 70 -74 73 -74 3 1 38 46 78
101 l73 101 -62 57 c-116 104 -98 105 -168 -10z"/>
<path d="M8418 10801 l-47 -76 52 -52 c28 -29 54 -53 57 -53 3 0 29 32 59 71
l53 71 -39 40 c-21 22 -49 48 -63 58 l-25 18 -47 -77z"/>
<path d="M6700 10784 c-17 -36 -30 -68 -30 -70 0 -6 82 -64 90 -64 8 0 65 149
59 154 -16 11 -78 46 -83 46 -4 0 -20 -30 -36 -66z"/>
<path d="M8211 10609 c-50 -81 -49 -88 21 -156 l39 -38 20 25 c10 14 35 49 56
77 l36 53 -59 55 c-32 30 -61 54 -64 54 -3 1 -25 -31 -49 -70z"/>
<path d="M8590 10519 c-50 -57 -51 -61 -34 -75 46 -35 49 -35 94 11 l43 44
-18 41 c-10 22 -21 40 -25 40 -4 0 -31 -27 -60 -61z"/>
<path d="M6564 10518 l-17 -52 39 -33 c21 -18 42 -33 46 -33 7 0 38 93 38 115
0 10 -68 55 -83 55 -3 0 -13 -23 -23 -52z"/>
<path d="M7100 10051 c0 -74 4 -121 10 -121 6 0 10 23 10 50 l0 50 48 0 c62 0
92 21 92 64 0 54 -19 69 -94 74 l-66 4 0 -121z m120 75 c6 -8 10 -25 8 -38 -3
-20 -9 -23 -55 -26 l-53 -3 0 40 0 41 44 0 c26 0 48 -6 56 -14z"/>
<path d="M7337 10149 c-37 -28 -52 -83 -38 -135 14 -52 39 -74 90 -81 36 -5
44 -2 76 30 31 31 35 41 35 87 0 46 -4 56 -34 86 -41 41 -89 46 -129 13z m112
-35 c46 -58 13 -154 -53 -154 -47 0 -71 30 -71 90 0 60 24 90 71 90 23 0 38
-7 53 -26z"/>
<path d="M7540 10051 c0 -101 2 -121 15 -121 12 0 15 13 15 55 0 52 1 55 25
55 27 0 61 -31 87 -79 9 -17 24 -31 33 -31 8 0 15 2 15 5 0 10 -53 90 -62 93
-4 2 6 17 23 33 24 22 29 34 24 51 -13 42 -32 52 -105 56 l-70 4 0 -121z m138
60 c5 -32 -21 -51 -70 -51 -38 0 -38 0 -38 41 l0 40 53 -3 c47 -3 52 -6 55
-27z"/>
<path d="M7740 10158 c0 -15 76 -217 85 -227 4 -3 12 2 19 11 18 24 89 218 83
225 -13 12 -28 -14 -57 -103 -18 -52 -34 -94 -35 -92 -2 2 -19 46 -37 98 -19
51 -39 95 -46 98 -7 2 -12 -2 -12 -10z"/>
<path d="M7970 10050 c0 -73 4 -120 10 -120 6 0 10 47 10 120 0 73 -4 120 -10
120 -6 0 -10 -47 -10 -120z"/>
<path d="M8044 10157 c-2 -7 -3 -60 -2 -118 2 -84 6 -104 18 -104 11 0 16 14
18 53 3 47 5 52 27 52 28 0 46 -17 76 -70 22 -39 49 -54 49 -27 0 8 -13 32
-29 55 l-30 40 25 16 c18 12 24 25 24 52 0 31 -4 37 -35 50 -44 18 -134 19
-141 1z m134 -29 c33 -33 1 -68 -62 -68 -35 0 -36 1 -36 40 l0 40 43 0 c24 0
48 -5 55 -12z"/>
<path d="M8966 6079 c-78 -61 -70 -174 15 -221 111 -62 236 70 169 179 -37 62
-131 84 -184 42z"/>
<path d="M6233 6055 c-64 -27 -90 -111 -58 -179 44 -92 184 -87 229 9 34 72
-5 153 -83 175 -45 12 -49 12 -88 -5z"/>
<path d="M2960 1680 l0 -440 2145 0 2145 0 0 440 0 440 -2145 0 -2145 0 0
-440z m4190 5 l0 -345 -2047 2 -2048 3 -3 330 c-1 181 0 336 3 342 3 10 416
13 2050 13 l2045 0 0 -345z"/>
<path d="M4425 1908 c-12 -33 -115 -423 -115 -436 0 -7 8 -12 17 -10 13 2 30
52 74 213 32 116 58 218 58 228 1 19 -27 24 -34 5z"/>
<path d="M5226 1903 c-3 -10 -28 -106 -56 -213 -28 -107 -53 -203 -56 -212 -4
-13 0 -18 15 -18 15 0 23 12 34 53 30 102 107 393 107 400 0 15 -39 6 -44 -10z"/>
<path d="M3593 1895 c-33 -14 -63 -59 -63 -95 0 -15 6 -20 25 -20 18 0 25 5
25 20 0 57 96 82 138 37 12 -13 22 -35 22 -49 0 -33 -45 -94 -115 -154 -57
-49 -105 -116 -105 -147 0 -15 16 -17 135 -17 l135 0 0 25 c0 24 -1 24 -102
27 l-103 3 87 83 c129 124 150 203 72 271 -39 35 -94 41 -151 16z"/>
<path d="M3914 1891 c-59 -37 -69 -134 -17 -168 24 -16 25 -17 5 -24 -59 -22
-74 -132 -26 -188 50 -60 163 -62 210 -4 33 41 40 106 17 146 -10 18 -28 36
-39 41 -19 9 -19 10 8 37 39 38 39 96 0 140 -37 41 -110 51 -158 20z m118 -48
c22 -20 23 -61 2 -91 -21 -31 -79 -30 -105 1 -23 27 -24 56 -3 85 19 27 78 30
106 5z m15 -185 c24 -25 26 -80 4 -115 -18 -29 -26 -33 -65 -33 -36 0 -48 5
-65 26 -30 38 -27 89 5 121 22 21 32 25 66 20 22 -3 47 -12 55 -19z"/>
<path d="M4723 1896 c-33 -15 -79 -88 -68 -106 3 -6 17 -10 31 -10 17 0 24 5
24 20 0 52 96 83 133 43 45 -51 15 -119 -90 -209 -55 -47 -113 -125 -113 -151
0 -10 32 -13 140 -13 l140 0 0 25 0 25 -100 0 c-55 0 -100 4 -100 8 0 4 40 46
89 93 66 64 92 96 100 125 13 49 0 102 -34 134 -30 29 -106 37 -152 16z"/>
<path d="M5591 1880 c-12 -17 -40 -42 -61 -56 -28 -19 -40 -34 -40 -50 0 -31
6 -30 63 6 l47 30 0 -170 0 -170 25 0 25 0 0 220 c0 206 -1 220 -18 220 -10 0
-28 -14 -41 -30z"/>
<path d="M5836 1880 c-53 -47 -55 -119 -4 -160 l22 -17 -22 -7 c-29 -10 -52
-55 -52 -104 0 -51 35 -103 80 -119 37 -13 99 -9 132 8 31 17 58 70 58 118 0
36 -6 49 -34 77 -31 31 -33 35 -17 47 77 57 19 187 -84 187 -35 0 -52 -6 -79
-30z m126 -37 c22 -20 23 -61 2 -91 -18 -27 -69 -30 -96 -5 -22 20 -23 70 -1
95 20 22 70 23 95 1z m8 -181 c32 -26 38 -90 10 -124 -17 -22 -30 -28 -60 -28
-58 0 -85 27 -85 85 0 37 5 51 24 66 29 24 82 25 111 1z"/>
<path d="M6148 1870 c-23 -23 -38 -47 -36 -57 4 -22 48 -31 48 -11 0 27 40 58
74 58 90 0 86 -118 -4 -137 -21 -4 -30 -11 -30 -24 0 -15 7 -19 34 -19 44 0
75 -26 82 -71 5 -28 1 -41 -21 -67 -43 -51 -113 -42 -133 18 -8 23 -17 30 -36
30 -30 0 -32 -10 -12 -48 29 -55 62 -76 119 -76 64 1 92 15 117 57 38 62 14
177 -37 177 -11 0 -8 8 11 31 63 75 5 179 -100 179 -29 0 -44 -8 -76 -40z"/>
<path d="M6464 1863 c-4 -21 -12 -69 -20 -108 -7 -38 -10 -73 -8 -77 9 -14 35
-9 61 12 36 28 88 26 118 -5 56 -55 15 -175 -58 -175 -40 0 -50 7 -71 48 -13
25 -23 32 -39 30 -17 -2 -21 -9 -19 -27 9 -58 58 -96 127 -96 83 0 135 55 137
143 2 66 -17 107 -59 133 -34 21 -79 23 -127 3 -15 -6 -17 -3 -13 12 3 10 8
36 12 56 l6 37 82 3 c76 3 82 5 85 26 3 22 2 22 -102 22 l-105 0 -7 -37z"/>
<path d="M10360 17676 c-36 -12 -79 -30 -96 -39 -29 -15 -35 -15 -115 13 -46
17 -93 29 -104 29 -16 -1 -15 -2 5 -8 42 -13 87 -39 93 -55 6 -14 140 -106
156 -106 5 0 12 15 15 33 8 42 66 111 115 137 52 27 13 25 -69 -4z"/>
<path d="M9907 17676 c-75 -20 -119 -73 -146 -174 -11 -41 -11 -44 22 -85 53
-66 67 -94 73 -139 6 -52 -18 -98 -68 -128 -42 -25 -23 -26 34 -1 98 43 162
110 188 199 16 53 1 115 -42 177 -24 34 -32 56 -32 91 -1 45 1 48 34 60 30 11
32 12 10 13 -14 0 -47 -6 -73 -13z"/>
<path d="M5831 17669 c-70 -28 -126 -105 -137 -192 -6 -42 -6 -42 43 -67 32
-17 54 -37 65 -60 21 -42 23 -129 4 -182 -8 -21 -10 -38 -6 -38 23 0 77 52 99
95 36 69 37 184 3 232 -26 37 -52 105 -52 138 0 32 36 73 68 78 16 2 10 4 -18
5 -25 0 -56 -4 -69 -9z"/>
<path d="M5995 17671 c55 -13 140 -47 203 -82 l52 -29 35 34 c41 41 99 56 221
56 95 0 111 -11 80 -59 -9 -14 -30 -53 -47 -86 -31 -64 -39 -139 -19 -190 16
-41 100 -125 154 -152 l50 -25 -27 32 c-52 61 -25 164 69 269 l44 49 -33 44
c-44 57 -118 112 -179 132 -98 31 -233 15 -311 -38 l-36 -25 -99 35 c-54 18
-121 36 -148 39 -47 4 -48 4 -9 -4z"/>
<path d="M7870 17671 c-18 -7 -4 -9 53 -10 94 -1 144 -19 153 -56 4 -15 1 -59
-5 -98 -24 -143 -24 -162 -2 -204 39 -78 180 -164 263 -163 16 1 11 5 -17 15
-22 8 -52 29 -67 47 -47 55 -34 110 41 181 l40 38 -25 67 c-13 36 -32 74 -41
85 -10 10 -55 37 -101 60 -78 38 -90 41 -175 44 -51 1 -103 -2 -117 -6z"/>
<path d="M7185 17663 c-36 -10 -105 -64 -145 -115 l-40 -50 31 -36 c38 -43 79
-127 79 -163 0 -74 -60 -141 -152 -171 l-53 -17 45 6 c25 3 68 15 95 27 96 43
153 111 180 212 16 63 15 77 -22 181 -14 40 -23 78 -20 86 3 7 20 21 39 30 30
15 31 16 8 16 -14 -1 -34 -4 -45 -6z"/>
<path d="M8900 17630 c36 -23 81 -55 101 -71 20 -16 42 -29 49 -29 6 0 31 14
55 30 25 17 64 40 87 50 l43 20 -39 -4 c-22 -3 -62 -17 -90 -30 l-50 -25 -31
23 c-45 35 -106 63 -150 71 l-40 7 65 -42z"/>
<path d="M7818 17653 c7 -3 16 -2 19 1 4 3 -2 6 -13 5 -11 0 -14 -3 -6 -6z"/>
<path d="M8620 17639 c-24 -11 -58 -31 -76 -44 l-31 -24 18 -68 c33 -128 21
-255 -31 -311 -26 -29 -81 -52 -124 -52 -11 0 -17 -3 -13 -6 12 -12 142 17
183 41 76 45 163 160 164 219 0 11 8 28 17 38 16 18 15 22 -12 75 -15 31 -30
78 -33 105 -2 26 -7 48 -11 48 -3 0 -26 -10 -51 -21z"/>
<path d="M9387 17605 c6 -26 -34 -114 -69 -151 -18 -20 -18 -25 -5 -78 34
-130 131 -228 247 -250 l35 -6 -35 21 c-78 47 -90 103 -40 201 68 133 23 241
-116 282 -18 6 -21 3 -17 -19z"/>
<path d="M7677 17586 c-10 -8 -28 -11 -40 -8 -22 5 -22 5 -3 -16 25 -28 28
-28 49 8 20 34 20 35 -6 16z"/>
<path d="M9728 17123 c7 -3 16 -2 19 1 4 3 -2 6 -13 5 -11 0 -14 -3 -6 -6z"/>
</g>
</svg>
